<svg xmlns="http://www.w3.org/2000/svg" width="50" height="50" viewBox="0 0 50 50">
  <g id="Grupo_10814" data-name="Grupo 10814" transform="translate(-737 -3410)">
    <circle id="Elipse_98" data-name="Elipse 98" cx="25" cy="25" r="25" transform="translate(737 3410)" fill="#117ab0"/>
    <g id="Grupo_10799" data-name="Grupo 10799" transform="translate(747.476 3423.698)">
      <path id="Trazado_9973" data-name="Trazado 9973" d="M11.408,25.088a4.1,4.1,0,0,0-1.564.235,13.03,13.03,0,0,1,5.818-7.269l.014-.009c.019-.01.037-.024.055-.034l0,0a.846.846,0,0,0,.077-1.471l.019-.019-3.249-2.052-.01.009a.8.8,0,0,0-.908-.085l-.016-.015c-4.848,3.44-8.054,8.678-8.054,14.543,0,5.082,3.284,7.974,6.958,7.974a6.242,6.242,0,0,0,6.178-6.177,5.3,5.3,0,0,0-5.315-5.628Z" transform="translate(-3.587 -14.289)" fill="#f2f5f8"/>
      <path id="Trazado_9974" data-name="Trazado 9974" d="M21.27,25.088a4.1,4.1,0,0,0-1.564.235,13.03,13.03,0,0,1,5.818-7.269l.014-.009c.019-.01.037-.024.055-.034l0,0a.846.846,0,0,0,.077-1.471l.019-.019-3.249-2.052-.01.009a.8.8,0,0,0-.908-.085l-.016-.015c-4.848,3.44-8.054,8.678-8.054,14.543,0,5.082,3.284,7.974,6.958,7.974a6.242,6.242,0,0,0,6.178-6.177,5.3,5.3,0,0,0-5.315-5.628Z" transform="translate(2.462 -14.289)" fill="#f2f5f8"/>
    </g>
  </g>
</svg>
