<svg xmlns="http://www.w3.org/2000/svg" width="50" height="50" viewBox="0 0 50 50">
  <g id="Grupo_10815" data-name="Grupo 10815" transform="translate(-1129 -3410)">
    <circle id="Elipse_99" data-name="Elipse 99" cx="25" cy="25" r="25" transform="translate(1129 3410)" fill="#117ab0"/>
    <g id="Grupo_10801" data-name="Grupo 10801" transform="translate(1139.476 3423.698)">
      <path id="Trazado_9973" data-name="Trazado 9973" d="M8.9,26.094a4.1,4.1,0,0,0,1.564-.235,13.03,13.03,0,0,1-5.818,7.269l-.014.009c-.019.01-.037.024-.055.034l0,0A.846.846,0,0,0,4.5,34.644l-.019.019,3.249,2.052.01-.009a.8.8,0,0,0,.908.085l.016.015c4.848-3.44,8.054-8.678,8.054-14.543,0-5.082-3.284-7.974-6.958-7.974a6.242,6.242,0,0,0-6.178,6.177A5.3,5.3,0,0,0,8.9,26.094Z" transform="translate(12.324 -14.289)" fill="#f2f5f8"/>
      <path id="Trazado_9974" data-name="Trazado 9974" d="M18.765,26.094a4.1,4.1,0,0,0,1.564-.235,13.03,13.03,0,0,1-5.818,7.269l-.014.009c-.019.01-.037.024-.055.034l0,0a.846.846,0,0,0-.077,1.471l-.019.019L17.6,36.714l.01-.009a.8.8,0,0,0,.908.085l.016.015c4.848-3.44,8.054-8.678,8.054-14.543,0-5.082-3.284-7.974-6.958-7.974a6.242,6.242,0,0,0-6.178,6.177,5.3,5.3,0,0,0,5.315,5.628Z" transform="translate(-13.45 -14.289)" fill="#f2f5f8"/>
    </g>
  </g>
</svg>
