<svg xmlns="http://www.w3.org/2000/svg" width="512" height="512" viewBox="0 0 512 512">
  <g id="Grupo_10816" data-name="Grupo 10816" transform="translate(0 1163)">
    <rect id="Rectángulo_2211" data-name="Rectángulo 2211" width="512" height="512" transform="translate(0 -1163)" fill="#fff" opacity="0"/>
    <g id="Grupo_10814" data-name="Grupo 10814" transform="translate(-60 -523)">
      <g id="Grupo_10814-2" data-name="Grupo 10814" transform="translate(179.087 -591)">
        <ellipse id="Elipse_132" data-name="Elipse 132" cx="26" cy="25.5" rx="26" ry="25.5" transform="translate(113.913 74)" fill="#117ab0"/>
        <circle id="Elipse_133" data-name="Elipse 133" cx="25.5" cy="25.5" r="25.5" transform="translate(-0.087 108)" fill="#117ab0"/>
        <ellipse id="Elipse_134" data-name="Elipse 134" cx="26" cy="25.5" rx="26" ry="25.5" transform="translate(113.913)" fill="#117ab0"/>
        <circle id="Elipse_135" data-name="Elipse 135" cx="25.5" cy="25.5" r="25.5" transform="translate(182.913 74)" fill="#117ab0"/>
        <ellipse id="Elipse_136" data-name="Elipse 136" cx="25.5" cy="26" rx="25.5" ry="26" transform="translate(290.913 182)" fill="#117ab0"/>
        <ellipse id="Elipse_137" data-name="Elipse 137" cx="25.5" cy="26" rx="25.5" ry="26" transform="translate(216.913 182)" fill="#117ab0"/>
        <circle id="Elipse_138" data-name="Elipse 138" cx="17" cy="17" r="17" transform="translate(50.913 153)" fill="#117ab0"/>
        <circle id="Elipse_139" data-name="Elipse 139" cx="17" cy="17" r="17" transform="translate(84.913 119)" fill="#117ab0"/>
        <ellipse id="Elipse_140" data-name="Elipse 140" cx="17.5" cy="17" rx="17.5" ry="17" transform="translate(44.913 85)" fill="#117ab0"/>
        <circle id="Elipse_141" data-name="Elipse 141" cx="17" cy="17" r="17" transform="translate(159.913 119)" fill="#117ab0"/>
        <circle id="Elipse_142" data-name="Elipse 142" cx="17" cy="17" r="17" transform="translate(193.913 153)" fill="#117ab0"/>
        <circle id="Elipse_143" data-name="Elipse 143" cx="17" cy="17" r="17" transform="translate(227.913 119)" fill="#117ab0"/>
        <circle id="Elipse_144" data-name="Elipse 144" cx="11.5" cy="11.5" r="11.5" transform="translate(159.913 51)" fill="#117ab0"/>
        <circle id="Elipse_145" data-name="Elipse 145" cx="11" cy="11" r="11" transform="translate(273.913 234)" fill="#117ab0"/>
        <circle id="Elipse_146" data-name="Elipse 146" cx="11" cy="11" r="11" transform="translate(273.913 165)" fill="#117ab0"/>
        <circle id="Elipse_147" data-name="Elipse 147" cx="11.5" cy="11.5" r="11.5" transform="translate(90.913 51)" fill="#117ab0"/>
      </g>
      <g id="Grupo_10815" data-name="Grupo 10815" transform="translate(111 -432.129)">
        <ellipse id="Elipse_148" data-name="Elipse 148" cx="25.5" cy="26" rx="25.5" ry="26" transform="translate(68 23.129)" fill="#fd8307"/>
        <circle id="Elipse_149" data-name="Elipse 149" cx="25.5" cy="25.5" r="25.5" transform="translate(108 132.129)" fill="#fd8307"/>
        <ellipse id="Elipse_150" data-name="Elipse 150" cx="26" cy="25.5" rx="26" ry="25.5" transform="translate(182 132.129)" fill="#fd8307"/>
        <ellipse id="Elipse_151" data-name="Elipse 151" cx="26" cy="25.5" rx="26" ry="25.5" transform="translate(182 205.129)" fill="#fd8307"/>
        <circle id="Elipse_152" data-name="Elipse 152" cx="25.5" cy="25.5" r="25.5" transform="translate(291 92.129)" fill="#fd8307"/>
        <ellipse id="Elipse_153" data-name="Elipse 153" cx="25.5" cy="26" rx="25.5" ry="26" transform="translate(0 23.129)" fill="#fd8307"/>
        <ellipse id="Elipse_154" data-name="Elipse 154" cx="17.5" cy="17" rx="17.5" ry="17" transform="translate(113 69.129)" fill="#fd8307"/>
        <circle id="Elipse_155" data-name="Elipse 155" cx="17" cy="17" r="17" transform="translate(79 103.129)" fill="#fd8307"/>
        <circle id="Elipse_156" data-name="Elipse 156" cx="17" cy="17" r="17" transform="translate(153 103.129)" fill="#fd8307"/>
        <circle id="Elipse_157" data-name="Elipse 157" cx="17" cy="17" r="17" transform="translate(228 103.129)" fill="#fd8307"/>
        <circle id="Elipse_158" data-name="Elipse 158" cx="17" cy="17" r="17" transform="translate(262 69.129)" fill="#fd8307"/>
        <circle id="Elipse_159" data-name="Elipse 159" cx="17" cy="17" r="17" transform="translate(262 143.129)" fill="#fd8307"/>
        <ellipse id="Elipse_160" data-name="Elipse 160" cx="11.5" cy="11" rx="11.5" ry="11" transform="translate(228 183.129)" fill="#fd8307"/>
        <ellipse id="Elipse_161" data-name="Elipse 161" cx="11.5" cy="11" rx="11.5" ry="11" transform="translate(159 183.129)" fill="#fd8307"/>
        <ellipse id="Elipse_162" data-name="Elipse 162" cx="11.5" cy="11" rx="11.5" ry="11" transform="translate(51 75.129)" fill="#fd8307"/>
        <circle id="Elipse_163" data-name="Elipse 163" cx="11.5" cy="11.5" r="11.5" transform="translate(51 0.129)" fill="#fd8307"/>
      </g>
    </g>
  </g>
</svg>
