<svg id="Componente_6_2" data-name="Componente 6 – 2" xmlns="http://www.w3.org/2000/svg" width="39" height="39" viewBox="0 0 39 39">
  <rect id="Rectángulo_2209" data-name="Rectángulo 2209" width="39" height="39" rx="19.5" fill="none"/>
  <g id="linkedin" transform="translate(9 9)">
    <path id="Trazado_9992" data-name="Trazado 9992" d="M4.973,20.939V6.812H.277V20.939ZM2.625,4.882A2.448,2.448,0,1,0,2.657,0a2.447,2.447,0,1,0-.062,4.882h.031ZM7.572,20.939h4.7V13.05a3.219,3.219,0,0,1,.155-1.146,2.57,2.57,0,0,1,2.409-1.717c1.7,0,2.379,1.3,2.379,3.195v7.558h4.7v-8.1c0-4.34-2.317-6.359-5.406-6.359a4.678,4.678,0,0,0-4.263,2.38h.031V6.811h-4.7c.062,1.326,0,14.128,0,14.128Z" transform="translate(0 0)" fill="#f5f5f5"/>
  </g>
</svg>
