<svg id="Componente_7_2" data-name="Componente 7 – 2" xmlns="http://www.w3.org/2000/svg" width="39" height="39" viewBox="0 0 39 39">
  <rect id="Rectángulo_2210" data-name="Rectángulo 2210" width="39" height="39" rx="19.5" fill="none"/>
  <g id="instagram" transform="translate(9 9)">
    <path id="Trazado_9993" data-name="Trazado 9993" d="M14.6,10.951a3.651,3.651,0,0,0-3.65-3.65,3.651,3.651,0,0,0-3.65,3.65,3.651,3.651,0,0,0,3.65,3.65,3.651,3.651,0,0,0,3.65-3.65Zm1.968,0a5.6,5.6,0,0,1-5.618,5.618,5.6,5.6,0,0,1-5.618-5.618,5.6,5.6,0,0,1,5.618-5.618,5.6,5.6,0,0,1,5.618,5.618ZM18.109,5.1a1.312,1.312,0,1,1-2.239-.927,1.312,1.312,0,0,1,2.239.927ZM10.951,1.968,9.86,1.961q-.991-.007-1.5,0T6.98,2a11.3,11.3,0,0,0-1.469.143,5.717,5.717,0,0,0-1.02.264A3.733,3.733,0,0,0,2.41,4.492a5.717,5.717,0,0,0-.264,1.02A11.3,11.3,0,0,0,2,6.98q-.036.863-.043,1.376t0,1.5q.007.991.007,1.091t-.007,1.091q-.007.991,0,1.5T2,14.922a11.3,11.3,0,0,0,.143,1.469,5.717,5.717,0,0,0,.264,1.02,3.733,3.733,0,0,0,2.082,2.082,5.717,5.717,0,0,0,1.02.264A11.3,11.3,0,0,0,6.98,19.9q.863.036,1.376.043t1.5,0l1.091-.007,1.091.007q.991.007,1.5,0t1.376-.043a11.3,11.3,0,0,0,1.469-.143,5.717,5.717,0,0,0,1.02-.264,3.733,3.733,0,0,0,2.082-2.082,5.717,5.717,0,0,0,.264-1.02,11.3,11.3,0,0,0,.143-1.469q.036-.863.043-1.376t0-1.5q-.007-.991-.007-1.091t.007-1.091q.007-.991,0-1.5T19.9,6.98a11.3,11.3,0,0,0-.143-1.469,5.717,5.717,0,0,0-.264-1.02A3.733,3.733,0,0,0,17.411,2.41a5.717,5.717,0,0,0-1.02-.264A11.3,11.3,0,0,0,14.922,2q-.863-.036-1.376-.043t-1.5,0ZM21.9,10.951q0,3.265-.071,4.52a6.689,6.689,0,0,1-1.768,4.591,6.689,6.689,0,0,1-4.591,1.768q-1.255.071-4.52.071t-4.52-.071a6.689,6.689,0,0,1-4.591-1.768A6.689,6.689,0,0,1,.071,15.471Q0,14.216,0,10.951t.071-4.52A6.689,6.689,0,0,1,1.839,1.839,6.689,6.689,0,0,1,6.431.071Q7.686,0,10.951,0t4.52.071a6.689,6.689,0,0,1,4.591,1.768,6.689,6.689,0,0,1,1.768,4.591Q21.9,7.686,21.9,10.951Z" fill="#f5f5f5"/>
  </g>
</svg>
