<svg id="phone" xmlns="http://www.w3.org/2000/svg" width="28.19" height="28.19" viewBox="0 0 28.19 28.19">
  <path id="Trazado_9983" data-name="Trazado 9983" d="M27.8,23.441l-3.975,3.943a2.876,2.876,0,0,1-2.122.806c-3.349-.1-6.515-1.746-9.114-3.435a35.164,35.164,0,0,1-10.639-11.6C1.007,11.2-.1,8.713.007,6.536A2.894,2.894,0,0,1,.814,4.385L4.788.413A1.315,1.315,0,0,1,6.94.771l3.2,6.063a1.76,1.76,0,0,1-.359,2L8.315,10.3a.719.719,0,0,0-.149.418,12.483,12.483,0,0,0,3.765,5.556c1.5,1.379,3.118,3.247,5.215,3.689a.825.825,0,0,0,.762-.075l1.7-1.732a1.945,1.945,0,0,1,2.062-.3h.03l5.768,3.405a1.388,1.388,0,0,1,.329,2.18Z" transform="translate(0 0)" fill="#f5f5f5"/>
</svg>
