<svg xmlns="http://www.w3.org/2000/svg" width="19.886" height="28.333" viewBox="0 0 19.886 28.333">
  <g id="pin" transform="translate(0 -0.333)">
    <path id="Trazado_9982" data-name="Trazado 9982" d="M9.91.333a9.665,9.665,0,0,1,7.05,2.893,9.5,9.5,0,0,1,2.926,7.017A13.561,13.561,0,0,1,18.855,15a27.583,27.583,0,0,1-2.494,4.988Q14.9,22.281,13.435,24.31t-2.461,3.226L9.91,28.666q-.4-.4-1.064-1.2T6.485,24.376q-1.7-2.295-3.026-4.456a30.406,30.406,0,0,1-2.394-4.888A13.456,13.456,0,0,1,0,10.243,9.555,9.555,0,0,1,2.893,3.226,9.555,9.555,0,0,1,9.91.333Zm0,13.435a3.508,3.508,0,0,0,2.527-1.031,3.455,3.455,0,0,0,0-4.988A3.508,3.508,0,0,0,9.91,6.718a3.52,3.52,0,0,0-3.525,3.525A3.52,3.52,0,0,0,9.91,13.768Z" fill="#f5f5f5"/>
  </g>
</svg>
