<svg id="mail" xmlns="http://www.w3.org/2000/svg" width="15.945" height="12.346" viewBox="0 0 15.945 12.346">
  <g id="Grupo_10810" data-name="Grupo 10810" transform="translate(0 0)">
    <path id="Trazado_9977" data-name="Trazado 9977" d="M20.935,9.691H6.049a.53.53,0,0,0-.529.529v1.065a.179.179,0,0,0,.1.128l7.824,4.469a.134.134,0,0,0,.133,0l7.588-4.464c.043-.024.156-.087.2-.116s.1-.067.1-.129V10.22A.53.53,0,0,0,20.935,9.691Z" transform="translate(-5.52 -9.691)" fill="#fd8307"/>
    <path id="Trazado_9978" data-name="Trazado 9978" d="M36.4,17.087a.133.133,0,0,0-.134,0l-4.294,2.526a.132.132,0,0,0-.03.2l4.295,4.63a.131.131,0,0,0,.1.042.133.133,0,0,0,.132-.132V17.2a.132.132,0,0,0-.066-.115Z" transform="translate(-20.526 -13.886)" fill="#fd8307"/>
    <path id="Trazado_9979" data-name="Trazado 9979" d="M16,24.879a.132.132,0,0,0-.164-.024l-1.721,1.013a.672.672,0,0,1-.664,0l-1.515-.865a.133.133,0,0,0-.156.018L6.025,30.359a.133.133,0,0,0,.024.211.512.512,0,0,0,.264.078H21.046a.132.132,0,0,0,.1-.222Z" transform="translate(-5.783 -18.302)" fill="#fd8307"/>
    <path id="Trazado_9980" data-name="Trazado 9980" d="M10.248,20.114a.132.132,0,0,0-.024-.212L5.717,17.327a.132.132,0,0,0-.2.115V24.2a.132.132,0,0,0,.222.1Z" transform="translate(-5.52 -14.023)" fill="#fd8307"/>
  </g>
</svg>
