<svg id="mail" xmlns="http://www.w3.org/2000/svg" width="28.361" height="21.96" viewBox="0 0 28.361 21.96">
  <g id="Grupo_10810" data-name="Grupo 10810" transform="translate(0 0)">
    <path id="Trazado_9977" data-name="Trazado 9977" d="M32.94,9.691H6.461a.943.943,0,0,0-.941.942v1.895a.319.319,0,0,0,.172.228L19.61,20.7a.238.238,0,0,0,.236,0l13.5-7.94c.076-.042.277-.154.352-.206.091-.062.186-.119.186-.23V10.632A.943.943,0,0,0,32.94,9.691Z" transform="translate(-5.52 -9.691)" fill="#f5f5f5"/>
    <path id="Trazado_9978" data-name="Trazado 9978" d="M39.9,17.1a.237.237,0,0,0-.238,0L32.028,21.6a.235.235,0,0,0-.053.363l7.639,8.235a.233.233,0,0,0,.172.075.236.236,0,0,0,.235-.235V17.305a.235.235,0,0,0-.118-.2Z" transform="translate(-11.66 -11.407)" fill="#f5f5f5"/>
    <path id="Trazado_9979" data-name="Trazado 9979" d="M23.795,24.912a.234.234,0,0,0-.291-.043l-3.062,1.8a1.194,1.194,0,0,1-1.182.008l-2.694-1.539a.236.236,0,0,0-.277.032L6.058,34.661a.236.236,0,0,0,.042.376.911.911,0,0,0,.469.138H32.776a.235.235,0,0,0,.172-.4Z" transform="translate(-5.628 -13.214)" fill="#f5f5f5"/>
    <path id="Trazado_9980" data-name="Trazado 9980" d="M13.93,22.3a.235.235,0,0,0-.042-.377L5.871,17.341a.235.235,0,0,0-.351.2V29.56a.235.235,0,0,0,.4.172Z" transform="translate(-5.52 -11.463)" fill="#f5f5f5"/>
  </g>
</svg>
