<svg xmlns="http://www.w3.org/2000/svg" width="299.576" height="73" viewBox="0 0 299.576 73">
  <g id="Grupo_10812" data-name="Grupo 10812" transform="translate(-271 -5463)">
    <path id="Trazado_9985" data-name="Trazado 9985" d="M11.024-5.512,12.9,0h2.418L9.334-17.524H6.63L.65,0H2.99L4.81-5.512ZM5.278-7.28l1.716-5.07c.364-1.066.624-2.158.884-3.172H7.93c.26,1.014.52,2.054.91,3.2L10.582-7.28ZM17.524-.6A7.174,7.174,0,0,0,21.06.286c2.938,0,4.68-1.56,4.68-3.8,0-1.872-1.144-2.964-3.3-3.77C20.8-7.93,20.072-8.4,20.072-9.438c0-.936.728-1.716,2.08-1.716a4.875,4.875,0,0,1,2.574.754l.546-1.664a5.841,5.841,0,0,0-3.068-.78c-2.678,0-4.342,1.664-4.342,3.692,0,1.508,1.066,2.73,3.354,3.562,1.664.624,2.314,1.2,2.314,2.288,0,1.066-.78,1.872-2.418,1.872a6.463,6.463,0,0,1-3.042-.884ZM34.736-12.844c-3.458,0-6.24,2.47-6.24,6.656C28.5-2.21,31.148.286,34.528.286c3.016,0,6.266-2.028,6.266-6.682C40.794-10.218,38.35-12.844,34.736-12.844Zm-.052,1.716c2.7,0,3.77,2.678,3.77,4.81,0,2.834-1.638,4.888-3.822,4.888-2.236,0-3.8-2.08-3.8-4.836C30.836-8.632,32.006-11.128,34.684-11.128Zm18.3,8.97a6.55,6.55,0,0,1-2.808.6c-2.5,0-4.368-1.794-4.368-4.706,0-2.6,1.56-4.758,4.446-4.758a5.6,5.6,0,0,1,2.652.6l.52-1.742a7.2,7.2,0,0,0-3.172-.676A6.414,6.414,0,0,0,43.5-6.136c0,3.848,2.47,6.422,6.266,6.422a8.846,8.846,0,0,0,3.614-.728ZM59.072,0V-12.584H56.784V0ZM57.928-17.55a1.394,1.394,0,0,0-1.43,1.43,1.345,1.345,0,0,0,1.378,1.4,1.365,1.365,0,0,0,1.456-1.4A1.373,1.373,0,0,0,57.928-17.55ZM72.436-7.722c0-2.5-.936-5.122-4.784-5.122a8.149,8.149,0,0,0-4.16,1.092l.52,1.534a6.064,6.064,0,0,1,3.3-.936,2.577,2.577,0,0,1,2.86,2.886v.26c-4.862-.026-7.566,1.638-7.566,4.68A3.585,3.585,0,0,0,66.456.286,4.687,4.687,0,0,0,70.3-1.586h.078L70.564,0h2.054a21.115,21.115,0,0,1-.182-3.016Zm-2.21,3.484a2.583,2.583,0,0,1-.1.728A3.176,3.176,0,0,1,67.028-1.4,2,2,0,0,1,64.9-3.588c0-2.444,2.834-2.886,5.33-2.834ZM85.436-18.46v7.514h-.052a4.216,4.216,0,0,0-3.8-1.9c-3.042,0-5.668,2.548-5.642,6.734,0,3.822,2.366,6.4,5.408,6.4a4.544,4.544,0,0,0,4.238-2.47h.078L85.774,0H87.8c-.052-.858-.1-2.132-.1-3.25V-18.46Zm0,13.182a3.974,3.974,0,0,1-.1.988,3.467,3.467,0,0,1-3.354,2.73c-2.444,0-3.718-2.106-3.718-4.654,0-2.756,1.4-4.836,3.77-4.836a3.369,3.369,0,0,1,3.3,2.626,4.039,4.039,0,0,1,.1.962Zm12.142-7.566c-3.458,0-6.24,2.47-6.24,6.656C91.338-2.21,93.99.286,97.37.286c3.016,0,6.266-2.028,6.266-6.682C103.636-10.218,101.192-12.844,97.578-12.844Zm-.052,1.716c2.7,0,3.77,2.678,3.77,4.81,0,2.834-1.638,4.888-3.822,4.888-2.236,0-3.8-2.08-3.8-4.836C93.678-8.632,94.848-11.128,97.526-11.128ZM106.392-.6a7.174,7.174,0,0,0,3.536.884c2.938,0,4.68-1.56,4.68-3.8,0-1.872-1.144-2.964-3.3-3.77-1.638-.65-2.366-1.118-2.366-2.158,0-.936.728-1.716,2.08-1.716a4.875,4.875,0,0,1,2.574.754l.546-1.664a5.841,5.841,0,0,0-3.068-.78c-2.678,0-4.342,1.664-4.342,3.692,0,1.508,1.066,2.73,3.354,3.562,1.664.624,2.314,1.2,2.314,2.288,0,1.066-.78,1.872-2.418,1.872a6.463,6.463,0,0,1-3.042-.884Z" transform="translate(455 5502)" fill="#f5f5f5"/>
    <path id="Trazado_9986" data-name="Trazado 9986" d="M10.234,0c-.68-.731-1.275-1.377-1.887-2.04A8.714,8.714,0,0,0,10-6.273H8.636A8.4,8.4,0,0,1,7.531-2.924C6.8-3.74,5.712-4.981,4.743-6.1v-.068c1.819-.9,2.516-1.853,2.516-3.06a2.374,2.374,0,0,0-2.533-2.431A2.783,2.783,0,0,0,1.819-8.823a3.976,3.976,0,0,0,.952,2.4v.051A3.764,3.764,0,0,0,.527-3.026,3.241,3.241,0,0,0,4.046.187,4.723,4.723,0,0,0,7.4-1.105c.442.442.748.782,1.071,1.105ZM4.318-.935A2.265,2.265,0,0,1,1.955-3.247,2.811,2.811,0,0,1,3.434-5.593c1.275,1.479,2.55,2.873,3.23,3.621A3.192,3.192,0,0,1,4.318-.935Zm.289-9.707A1.352,1.352,0,0,1,5.95-9.163c0,.986-.748,1.6-1.9,2.261a3.31,3.31,0,0,1-.867-2.074A1.489,1.489,0,0,1,4.607-10.642Z" transform="translate(438 5501)" fill="#f5f5f5"/>
    <path id="Trazado_9987" data-name="Trazado 9987" d="M1.95,0h9.776V-1.9H4.238V-17.524H1.95ZM17.186,0V-12.584H14.9V0ZM16.042-17.55a1.394,1.394,0,0,0-1.43,1.43,1.345,1.345,0,0,0,1.378,1.4,1.365,1.365,0,0,0,1.456-1.4A1.373,1.373,0,0,0,16.042-17.55ZM21.71,0H24V-7.566a3.29,3.29,0,0,1,.156-1.066,3.3,3.3,0,0,1,3.068-2.34c2.158,0,2.912,1.69,2.912,3.718V0h2.288V-7.488c0-4.316-2.7-5.356-4.446-5.356a4.66,4.66,0,0,0-4.16,2.34h-.052l-.13-2.08H21.606c.078,1.04.1,2.08.1,3.406ZM45.448-18.46v7.514H45.4a4.216,4.216,0,0,0-3.8-1.9c-3.042,0-5.668,2.548-5.642,6.734,0,3.822,2.366,6.4,5.408,6.4A4.544,4.544,0,0,0,45.6-2.184h.078L45.786,0h2.028c-.052-.858-.1-2.132-.1-3.25V-18.46Zm0,13.182a3.974,3.974,0,0,1-.1.988A3.467,3.467,0,0,1,41.99-1.56c-2.444,0-3.718-2.106-3.718-4.654,0-2.756,1.4-4.836,3.77-4.836a3.369,3.369,0,0,1,3.3,2.626,4.039,4.039,0,0,1,.1.962ZM51.4-.6a7.174,7.174,0,0,0,3.536.884c2.938,0,4.68-1.56,4.68-3.8,0-1.872-1.144-2.964-3.3-3.77C54.678-7.93,53.95-8.4,53.95-9.438c0-.936.728-1.716,2.08-1.716A4.875,4.875,0,0,1,58.6-10.4l.546-1.664a5.841,5.841,0,0,0-3.068-.78c-2.678,0-4.342,1.664-4.342,3.692,0,1.508,1.066,2.73,3.354,3.562,1.664.624,2.314,1.2,2.314,2.288,0,1.066-.78,1.872-2.418,1.872a6.463,6.463,0,0,1-3.042-.884ZM72.124-7.722c0-2.5-.936-5.122-4.784-5.122a8.149,8.149,0,0,0-4.16,1.092l.52,1.534a6.064,6.064,0,0,1,3.3-.936,2.577,2.577,0,0,1,2.86,2.886v.26C65-8.034,62.3-6.37,62.3-3.328A3.585,3.585,0,0,0,66.144.286a4.687,4.687,0,0,0,3.848-1.872h.078L70.252,0h2.054a21.115,21.115,0,0,1-.182-3.016Zm-2.21,3.484a2.583,2.583,0,0,1-.1.728A3.176,3.176,0,0,1,66.716-1.4a2,2,0,0,1-2.132-2.184c0-2.444,2.834-2.886,5.33-2.834Zm4.758-8.346L79.3-.988a1.583,1.583,0,0,1,.182.6A1.642,1.642,0,0,1,79.3.156,7.23,7.23,0,0,1,77.376,2.7a6.052,6.052,0,0,1-2,1.118l.572,1.9a6.487,6.487,0,0,0,2.808-1.456C80.314,2.886,81.432.7,83.07-3.614l3.432-8.97H84.084L81.588-5.2c-.312.91-.572,1.872-.806,2.626H80.73c-.208-.754-.52-1.742-.832-2.574l-2.73-7.436Z" transform="translate(347 5501)" fill="#f5f5f5"/>
    <path id="Trazado_9988" data-name="Trazado 9988" d="M7.406-1.274a4.9,4.9,0,0,1-2,.392c-2.282,0-3.612-1.47-3.612-3.794,0-2.478,1.47-3.892,3.682-3.892a4.322,4.322,0,0,1,1.89.392l.308-.994a5.11,5.11,0,0,0-2.24-.42A4.688,4.688,0,0,0,.5-4.634,4.4,4.4,0,0,0,5.152.154,5.994,5.994,0,0,0,7.644-.294ZM12.25-6.916A3.312,3.312,0,0,0,8.89-3.332,3.229,3.229,0,0,0,12.138.154a3.319,3.319,0,0,0,3.374-3.6A3.2,3.2,0,0,0,12.25-6.916Zm-.028.924c1.456,0,2.03,1.442,2.03,2.59,0,1.526-.882,2.632-2.058,2.632-1.2,0-2.044-1.12-2.044-2.6C10.15-4.648,10.78-5.992,12.222-5.992ZM17.458,0H18.69V-4.074a1.771,1.771,0,0,1,.084-.574,1.778,1.778,0,0,1,1.652-1.26c1.162,0,1.568.91,1.568,2V0h1.232V-4.032c0-2.324-1.456-2.884-2.394-2.884a2.509,2.509,0,0,0-2.24,1.26h-.028l-.07-1.12H17.4c.042.56.056,1.12.056,1.834Zm8.386-8.036v1.26h-1.05v.938h1.05v3.7A2.647,2.647,0,0,0,26.32-.364a1.757,1.757,0,0,0,1.33.518,3.359,3.359,0,0,0,1.092-.168l-.056-.938a2.3,2.3,0,0,1-.714.084c-.686,0-.924-.476-.924-1.316V-5.838h1.764v-.938H27.048V-8.4ZM35.35-4.158c0-1.344-.5-2.758-2.576-2.758a4.388,4.388,0,0,0-2.24.588l.28.826a3.265,3.265,0,0,1,1.778-.5,1.387,1.387,0,0,1,1.54,1.554v.14c-2.618-.014-4.074.882-4.074,2.52A1.93,1.93,0,0,0,32.13.154,2.524,2.524,0,0,0,34.2-.854h.042l.1.854h1.106a11.369,11.369,0,0,1-.1-1.624ZM34.16-2.282a1.391,1.391,0,0,1-.056.392A1.71,1.71,0,0,1,32.438-.756,1.079,1.079,0,0,1,31.29-1.932c0-1.316,1.526-1.554,2.87-1.526ZM42.35-9.94v4.046h-.028a2.27,2.27,0,0,0-2.044-1.022c-1.638,0-3.052,1.372-3.038,3.626,0,2.058,1.274,3.444,2.912,3.444a2.447,2.447,0,0,0,2.282-1.33h.042L42.532,0h1.092c-.028-.462-.056-1.148-.056-1.75V-9.94Zm0,7.1a2.14,2.14,0,0,1-.056.532A1.867,1.867,0,0,1,40.488-.84c-1.316,0-2-1.134-2-2.506,0-1.484.756-2.6,2.03-2.6a1.814,1.814,0,0,1,1.778,1.414,2.175,2.175,0,0,1,.056.518Zm6.538-4.074a3.312,3.312,0,0,0-3.36,3.584A3.229,3.229,0,0,0,48.776.154a3.319,3.319,0,0,0,3.374-3.6A3.2,3.2,0,0,0,48.888-6.916Zm-.028.924c1.456,0,2.03,1.442,2.03,2.59,0,1.526-.882,2.632-2.058,2.632-1.2,0-2.044-1.12-2.044-2.6C46.788-4.648,47.418-5.992,48.86-5.992ZM54.1,0h1.232V-3.612a3.686,3.686,0,0,1,.042-.574,1.715,1.715,0,0,1,1.652-1.568,1.918,1.918,0,0,1,.42.028V-6.888a2.508,2.508,0,0,0-.336-.028,2.049,2.049,0,0,0-1.89,1.484h-.042l-.056-1.344H54.04c.042.63.056,1.316.056,2.114ZM64.372-3.164a3,3,0,0,0,.042-.574c0-1.246-.574-3.178-2.8-3.178-1.974,0-3.178,1.6-3.178,3.64A3.158,3.158,0,0,0,61.768.154,5.52,5.52,0,0,0,64.036-.28l-.224-.882a4.407,4.407,0,0,1-1.876.35,2.164,2.164,0,0,1-2.324-2.352Zm-4.746-.882a2.018,2.018,0,0,1,1.89-1.988,1.749,1.749,0,0,1,1.708,1.988ZM65.87-.322a3.863,3.863,0,0,0,1.9.476c1.582,0,2.52-.84,2.52-2.044,0-1.008-.616-1.6-1.778-2.03-.882-.35-1.274-.6-1.274-1.162,0-.5.392-.924,1.12-.924a2.625,2.625,0,0,1,1.386.406l.294-.9a3.145,3.145,0,0,0-1.652-.42,2.1,2.1,0,0,0-2.338,1.988c0,.812.574,1.47,1.806,1.918.9.336,1.246.644,1.246,1.232S68.684-.77,67.8-.77a3.48,3.48,0,0,1-1.638-.476Z" transform="translate(349 5519)" fill="#f5f5f5"/>
    <path id="Trazado_9989" data-name="Trazado 9989" d="M5.936-2.968,6.944,0h1.3L5.026-9.436H3.57L.35,0H1.61l.98-2.968ZM2.842-3.92l.924-2.73c.2-.574.336-1.162.476-1.708H4.27c.14.546.28,1.106.49,1.722L5.7-3.92ZM15.484-6.776H14.252v4.144A1.689,1.689,0,0,1,14.14-2,1.772,1.772,0,0,1,12.516-.868C11.41-.868,11-1.75,11-3.038V-6.776H9.772v3.962C9.772-.448,11.046.154,12.11.154a2.531,2.531,0,0,0,2.24-1.26h.028L14.448,0H15.54c-.042-.532-.056-1.148-.056-1.862ZM22.54-9.94v4.046h-.028a2.27,2.27,0,0,0-2.044-1.022c-1.638,0-3.052,1.372-3.038,3.626C17.43-1.232,18.7.154,20.342.154a2.447,2.447,0,0,0,2.282-1.33h.042L22.722,0h1.092c-.028-.462-.056-1.148-.056-1.75V-9.94Zm0,7.1a2.14,2.14,0,0,1-.056.532A1.867,1.867,0,0,1,20.678-.84c-1.316,0-2-1.134-2-2.506,0-1.484.756-2.6,2.03-2.6a1.814,1.814,0,0,1,1.778,1.414,2.175,2.175,0,0,1,.056.518ZM27.44,0V-6.776H26.208V0Zm-.616-9.45a.751.751,0,0,0-.77.77.724.724,0,0,0,.742.756.735.735,0,0,0,.784-.756A.739.739,0,0,0,26.824-9.45Zm3.332,1.414v1.26h-1.05v.938h1.05v3.7a2.647,2.647,0,0,0,.476,1.778,1.757,1.757,0,0,0,1.33.518,3.359,3.359,0,0,0,1.092-.168L33-.952a2.3,2.3,0,0,1-.714.084c-.686,0-.924-.476-.924-1.316V-5.838h1.764v-.938H31.36V-8.4Zm7.532,1.12a3.312,3.312,0,0,0-3.36,3.584A3.229,3.229,0,0,0,37.576.154a3.319,3.319,0,0,0,3.374-3.6A3.2,3.2,0,0,0,37.688-6.916Zm-.028.924c1.456,0,2.03,1.442,2.03,2.59,0,1.526-.882,2.632-2.058,2.632-1.2,0-2.044-1.12-2.044-2.6C35.588-4.648,36.218-5.992,37.66-5.992ZM42.9,0h1.232V-3.612a3.686,3.686,0,0,1,.042-.574,1.715,1.715,0,0,1,1.652-1.568,1.918,1.918,0,0,1,.42.028V-6.888a2.508,2.508,0,0,0-.336-.028,2.049,2.049,0,0,0-1.89,1.484h-.042l-.056-1.344H42.84c.042.63.056,1.316.056,2.114ZM53.172-3.164a3,3,0,0,0,.042-.574c0-1.246-.574-3.178-2.8-3.178-1.974,0-3.178,1.6-3.178,3.64A3.158,3.158,0,0,0,50.568.154,5.52,5.52,0,0,0,52.836-.28l-.224-.882a4.407,4.407,0,0,1-1.876.35,2.164,2.164,0,0,1-2.324-2.352Zm-4.746-.882a2.018,2.018,0,0,1,1.89-1.988,1.749,1.749,0,0,1,1.708,1.988ZM54.67-.322a3.863,3.863,0,0,0,1.9.476c1.582,0,2.52-.84,2.52-2.044,0-1.008-.616-1.6-1.778-2.03-.882-.35-1.274-.6-1.274-1.162,0-.5.392-.924,1.12-.924a2.625,2.625,0,0,1,1.386.406l.294-.9a3.145,3.145,0,0,0-1.652-.42,2.1,2.1,0,0,0-2.338,1.988c0,.812.574,1.47,1.806,1.918.9.336,1.246.644,1.246,1.232S57.484-.77,56.6-.77a3.48,3.48,0,0,1-1.638-.476Z" transform="translate(429 5519)" fill="#f5f5f5"/>
    <path id="Trazado_9984" data-name="Trazado 9984" d="M7.406-1.274a4.9,4.9,0,0,1-2,.392c-2.282,0-3.612-1.47-3.612-3.794,0-2.478,1.47-3.892,3.682-3.892a4.322,4.322,0,0,1,1.89.392l.308-.994a5.11,5.11,0,0,0-2.24-.42A4.688,4.688,0,0,0,.5-4.634,4.4,4.4,0,0,0,5.152.154,5.994,5.994,0,0,0,7.644-.294ZM12.25-6.916A3.312,3.312,0,0,0,8.89-3.332,3.229,3.229,0,0,0,12.138.154a3.319,3.319,0,0,0,3.374-3.6A3.2,3.2,0,0,0,12.25-6.916Zm-.028.924c1.456,0,2.03,1.442,2.03,2.59,0,1.526-.882,2.632-2.058,2.632-1.2,0-2.044-1.12-2.044-2.6C10.15-4.648,10.78-5.992,12.222-5.992ZM17.458,0H18.69V-4.074a1.771,1.771,0,0,1,.084-.574,1.778,1.778,0,0,1,1.652-1.26c1.162,0,1.568.91,1.568,2V0h1.232V-4.032c0-2.324-1.456-2.884-2.394-2.884a2.509,2.509,0,0,0-2.24,1.26h-.028l-.07-1.12H17.4c.042.56.056,1.12.056,1.834Zm7.7-.322a3.863,3.863,0,0,0,1.9.476c1.582,0,2.52-.84,2.52-2.044,0-1.008-.616-1.6-1.778-2.03-.882-.35-1.274-.6-1.274-1.162,0-.5.392-.924,1.12-.924a2.625,2.625,0,0,1,1.386.406l.294-.9a3.145,3.145,0,0,0-1.652-.42A2.1,2.1,0,0,0,25.34-4.928c0,.812.574,1.47,1.806,1.918.9.336,1.246.644,1.246,1.232S27.972-.77,27.09-.77a3.48,3.48,0,0,1-1.638-.476ZM37.226-6.776H35.994v4.144a1.689,1.689,0,0,1-.112.63A1.772,1.772,0,0,1,34.258-.868c-1.106,0-1.512-.882-1.512-2.17V-6.776H31.514v3.962c0,2.366,1.274,2.968,2.338,2.968a2.531,2.531,0,0,0,2.24-1.26h.028L36.19,0h1.092c-.042-.532-.056-1.148-.056-1.862ZM39.662,0h1.232V-9.94H39.662Zm3.976-8.036v1.26h-1.05v.938h1.05v3.7a2.647,2.647,0,0,0,.476,1.778,1.757,1.757,0,0,0,1.33.518,3.359,3.359,0,0,0,1.092-.168L46.48-.952a2.3,2.3,0,0,1-.714.084c-.686,0-.924-.476-.924-1.316V-5.838h1.764v-.938H44.842V-8.4Zm7.532,1.12a3.312,3.312,0,0,0-3.36,3.584A3.229,3.229,0,0,0,51.058.154a3.319,3.319,0,0,0,3.374-3.6A3.2,3.2,0,0,0,51.17-6.916Zm-.028.924c1.456,0,2.03,1.442,2.03,2.59,0,1.526-.882,2.632-2.058,2.632-1.2,0-2.044-1.12-2.044-2.6C49.07-4.648,49.7-5.992,51.142-5.992ZM56.378,0H57.61V-3.612a3.686,3.686,0,0,1,.042-.574A1.715,1.715,0,0,1,59.3-5.754a1.918,1.918,0,0,1,.42.028V-6.888a2.508,2.508,0,0,0-.336-.028A2.049,2.049,0,0,0,57.5-5.432h-.042L57.4-6.776H56.322c.042.63.056,1.316.056,2.114ZM66.654-3.164a3,3,0,0,0,.042-.574c0-1.246-.574-3.178-2.8-3.178-1.974,0-3.178,1.6-3.178,3.64A3.158,3.158,0,0,0,64.05.154,5.52,5.52,0,0,0,66.318-.28l-.224-.882a4.407,4.407,0,0,1-1.876.35,2.164,2.164,0,0,1-2.324-2.352Zm-4.746-.882A2.018,2.018,0,0,1,63.8-6.034a1.749,1.749,0,0,1,1.708,1.988ZM68.152-.322a3.863,3.863,0,0,0,1.9.476c1.582,0,2.52-.84,2.52-2.044,0-1.008-.616-1.6-1.778-2.03-.882-.35-1.274-.6-1.274-1.162,0-.5.392-.924,1.12-.924A2.625,2.625,0,0,1,72.03-5.6l.294-.9a3.145,3.145,0,0,0-1.652-.42,2.1,2.1,0,0,0-2.338,1.988c0,.812.574,1.47,1.806,1.918.9.336,1.246.644,1.246,1.232s-.42,1.008-1.3,1.008a3.48,3.48,0,0,1-1.638-.476Z" transform="translate(498 5519)" fill="#f5f5f5"/>
    <path id="Trazado_9990" data-name="Trazado 9990" d="M1.5,0A1.5,1.5,0,1,1,0,1.5,1.5,1.5,0,0,1,1.5,0Z" transform="translate(424 5514)" fill="#f5f5f5"/>
    <path id="Trazado_9991" data-name="Trazado 9991" d="M1.5,0A1.5,1.5,0,1,1,0,1.5,1.5,1.5,0,0,1,1.5,0Z" transform="translate(492 5514)" fill="#f5f5f5"/>
    <g id="Grupo_10811" data-name="Grupo 10811" transform="translate(516 4971)">
      <g id="Grupo_10788" data-name="Grupo 10788" transform="translate(-412 928)">
        <g id="Grupo_10787" data-name="Grupo 10787">
          <circle id="Elipse_1" data-name="Elipse 1" cx="4.5" cy="4.5" r="4.5" transform="translate(199 -423)" fill="#f5f5f5"/>
          <circle id="Elipse_8" data-name="Elipse 8" cx="4.5" cy="4.5" r="4.5" transform="translate(179 -417)" fill="#f5f5f5"/>
          <circle id="Elipse_2" data-name="Elipse 2" cx="4.5" cy="4.5" r="4.5" transform="translate(199 -436)" fill="#f5f5f5"/>
          <circle id="Elipse_3" data-name="Elipse 3" cx="4.5" cy="4.5" r="4.5" transform="translate(211 -423)" fill="#f5f5f5"/>
          <circle id="Elipse_4" data-name="Elipse 4" cx="4.5" cy="4.5" r="4.5" transform="translate(230 -404)" fill="#f5f5f5"/>
          <circle id="Elipse_5" data-name="Elipse 5" cx="4.5" cy="4.5" r="4.5" transform="translate(217 -404)" fill="#f5f5f5"/>
          <circle id="Elipse_13" data-name="Elipse 13" cx="3" cy="3" r="3" transform="translate(188 -409)" fill="#f5f5f5"/>
          <circle id="Elipse_14" data-name="Elipse 14" cx="3" cy="3" r="3" transform="translate(194 -415)" fill="#f5f5f5"/>
          <circle id="Elipse_15" data-name="Elipse 15" cx="3" cy="3" r="3" transform="translate(187 -421)" fill="#f5f5f5"/>
          <circle id="Elipse_16" data-name="Elipse 16" cx="3" cy="3" r="3" transform="translate(207 -415)" fill="#f5f5f5"/>
          <circle id="Elipse_17" data-name="Elipse 17" cx="3" cy="3" r="3" transform="translate(213 -409)" fill="#f5f5f5"/>
          <circle id="Elipse_18" data-name="Elipse 18" cx="3" cy="3" r="3" transform="translate(219 -415)" fill="#f5f5f5"/>
          <circle id="Elipse_31" data-name="Elipse 31" cx="2" cy="2" r="2" transform="translate(207 -427)" fill="#f5f5f5"/>
          <circle id="Elipse_29" data-name="Elipse 29" cx="2" cy="2" r="2" transform="translate(227 -395)" fill="#f5f5f5"/>
          <circle id="Elipse_30" data-name="Elipse 30" cx="2" cy="2" r="2" transform="translate(227 -407)" fill="#f5f5f5"/>
          <circle id="Elipse_32" data-name="Elipse 32" cx="2" cy="2" r="2" transform="translate(195 -427)" fill="#f5f5f5"/>
        </g>
        <g id="Grupo_10786" data-name="Grupo 10786">
          <circle id="Elipse_6" data-name="Elipse 6" cx="4.5" cy="4.5" r="4.5" transform="translate(179 -404)" fill="#f5f5f5"/>
          <circle id="Elipse_9" data-name="Elipse 9" cx="4.5" cy="4.5" r="4.5" transform="translate(186 -385)" fill="#f5f5f5"/>
          <circle id="Elipse_10" data-name="Elipse 10" cx="4.5" cy="4.5" r="4.5" transform="translate(199 -385)" fill="#f5f5f5"/>
          <circle id="Elipse_11" data-name="Elipse 11" cx="4.5" cy="4.5" r="4.5" transform="translate(199 -372)" fill="#f5f5f5"/>
          <circle id="Elipse_12" data-name="Elipse 12" cx="4.5" cy="4.5" r="4.5" transform="translate(218 -392)" fill="#f5f5f5"/>
          <circle id="Elipse_7" data-name="Elipse 7" cx="4.5" cy="4.5" r="4.5" transform="translate(167 -404)" fill="#f5f5f5"/>
          <circle id="Elipse_19" data-name="Elipse 19" cx="3" cy="3" r="3" transform="translate(187 -396)" fill="#f5f5f5"/>
          <circle id="Elipse_20" data-name="Elipse 20" cx="3" cy="3" r="3" transform="translate(181 -390)" fill="#f5f5f5"/>
          <circle id="Elipse_21" data-name="Elipse 21" cx="3" cy="3" r="3" transform="translate(194 -390)" fill="#f5f5f5"/>
          <circle id="Elipse_22" data-name="Elipse 22" cx="3" cy="3" r="3" transform="translate(207 -390)" fill="#f5f5f5"/>
          <circle id="Elipse_23" data-name="Elipse 23" cx="3" cy="3" r="3" transform="translate(213 -396)" fill="#f5f5f5"/>
          <circle id="Elipse_24" data-name="Elipse 24" cx="3" cy="3" r="3" transform="translate(213 -383)" fill="#f5f5f5"/>
          <circle id="Elipse_25" data-name="Elipse 25" cx="2" cy="2" r="2" transform="translate(207 -376)" fill="#f5f5f5"/>
          <circle id="Elipse_26" data-name="Elipse 26" cx="2" cy="2" r="2" transform="translate(195 -376)" fill="#f5f5f5"/>
          <circle id="Elipse_27" data-name="Elipse 27" cx="2" cy="2" r="2" transform="translate(176 -395)" fill="#f5f5f5"/>
          <circle id="Elipse_28" data-name="Elipse 28" cx="2" cy="2" r="2" transform="translate(176 -408)" fill="#f5f5f5"/>
        </g>
      </g>
    </g>
  </g>
</svg>
