<svg xmlns="http://www.w3.org/2000/svg" width="72" height="73" viewBox="0 0 72 73">
  <g id="Grupo_10786" data-name="Grupo 10786" transform="translate(245 -492)">
    <g id="Grupo_10788" data-name="Grupo 10788" transform="translate(-412 928)">
      <g id="Grupo_10787" data-name="Grupo 10787">
        <circle id="Elipse_1" data-name="Elipse 1" cx="4.5" cy="4.5" r="4.5" transform="translate(199 -423)" fill="#dfe0df"/>
        <circle id="Elipse_8" data-name="Elipse 8" cx="4.5" cy="4.5" r="4.5" transform="translate(179 -417)" fill="#dfe0df"/>
        <circle id="Elipse_2" data-name="Elipse 2" cx="4.5" cy="4.5" r="4.5" transform="translate(199 -436)" fill="#dfe0df"/>
        <circle id="Elipse_3" data-name="Elipse 3" cx="4.5" cy="4.5" r="4.5" transform="translate(211 -423)" fill="#dfe0df"/>
        <circle id="Elipse_4" data-name="Elipse 4" cx="4.5" cy="4.5" r="4.5" transform="translate(230 -404)" fill="#dfe0df"/>
        <circle id="Elipse_5" data-name="Elipse 5" cx="4.5" cy="4.5" r="4.5" transform="translate(217 -404)" fill="#dfe0df"/>
        <circle id="Elipse_13" data-name="Elipse 13" cx="3" cy="3" r="3" transform="translate(188 -409)" fill="#dfe0df"/>
        <circle id="Elipse_14" data-name="Elipse 14" cx="3" cy="3" r="3" transform="translate(194 -415)" fill="#dfe0df"/>
        <circle id="Elipse_15" data-name="Elipse 15" cx="3" cy="3" r="3" transform="translate(187 -421)" fill="#dfe0df"/>
        <circle id="Elipse_16" data-name="Elipse 16" cx="3" cy="3" r="3" transform="translate(207 -415)" fill="#dfe0df"/>
        <circle id="Elipse_17" data-name="Elipse 17" cx="3" cy="3" r="3" transform="translate(213 -409)" fill="#dfe0df"/>
        <circle id="Elipse_18" data-name="Elipse 18" cx="3" cy="3" r="3" transform="translate(219 -415)" fill="#dfe0df"/>
        <circle id="Elipse_31" data-name="Elipse 31" cx="2" cy="2" r="2" transform="translate(207 -427)" fill="#dfe0df"/>
        <circle id="Elipse_29" data-name="Elipse 29" cx="2" cy="2" r="2" transform="translate(227 -395)" fill="#dfe0df"/>
        <circle id="Elipse_30" data-name="Elipse 30" cx="2" cy="2" r="2" transform="translate(227 -407)" fill="#dfe0df"/>
        <circle id="Elipse_32" data-name="Elipse 32" cx="2" cy="2" r="2" transform="translate(195 -427)" fill="#dfe0df"/>
      </g>
      <g id="Grupo_10786-2" data-name="Grupo 10786">
        <circle id="Elipse_6" data-name="Elipse 6" cx="4.5" cy="4.5" r="4.5" transform="translate(179 -404)" fill="#dfe0df"/>
        <circle id="Elipse_9" data-name="Elipse 9" cx="4.5" cy="4.5" r="4.5" transform="translate(186 -385)" fill="#dfe0df"/>
        <circle id="Elipse_10" data-name="Elipse 10" cx="4.5" cy="4.5" r="4.5" transform="translate(199 -385)" fill="#dfe0df"/>
        <circle id="Elipse_11" data-name="Elipse 11" cx="4.5" cy="4.5" r="4.5" transform="translate(199 -372)" fill="#dfe0df"/>
        <circle id="Elipse_12" data-name="Elipse 12" cx="4.5" cy="4.5" r="4.5" transform="translate(218 -392)" fill="#dfe0df"/>
        <circle id="Elipse_7" data-name="Elipse 7" cx="4.5" cy="4.5" r="4.5" transform="translate(167 -404)" fill="#dfe0df"/>
        <circle id="Elipse_19" data-name="Elipse 19" cx="3" cy="3" r="3" transform="translate(187 -396)" fill="#dfe0df"/>
        <circle id="Elipse_20" data-name="Elipse 20" cx="3" cy="3" r="3" transform="translate(181 -390)" fill="#dfe0df"/>
        <circle id="Elipse_21" data-name="Elipse 21" cx="3" cy="3" r="3" transform="translate(194 -390)" fill="#dfe0df"/>
        <circle id="Elipse_22" data-name="Elipse 22" cx="3" cy="3" r="3" transform="translate(207 -390)" fill="#dfe0df"/>
        <circle id="Elipse_23" data-name="Elipse 23" cx="3" cy="3" r="3" transform="translate(213 -396)" fill="#dfe0df"/>
        <circle id="Elipse_24" data-name="Elipse 24" cx="3" cy="3" r="3" transform="translate(213 -383)" fill="#dfe0df"/>
        <circle id="Elipse_25" data-name="Elipse 25" cx="2" cy="2" r="2" transform="translate(207 -376)" fill="#dfe0df"/>
        <circle id="Elipse_26" data-name="Elipse 26" cx="2" cy="2" r="2" transform="translate(195 -376)" fill="#dfe0df"/>
        <circle id="Elipse_27" data-name="Elipse 27" cx="2" cy="2" r="2" transform="translate(176 -395)" fill="#dfe0df"/>
        <circle id="Elipse_28" data-name="Elipse 28" cx="2" cy="2" r="2" transform="translate(176 -408)" fill="#dfe0df"/>
      </g>
    </g>
  </g>
</svg>
